<?xml version="1.0" standalone="no"?><!-- Generator: Gravit.io --><svg xmlns="http://www.w3.org/2000/svg" xmlns:xlink="http://www.w3.org/1999/xlink" style="isolation:isolate" viewBox="0 0 894.07 269.51" width="894.07px" height="269.51px"><rect x="-30.393" y="-28.108" width="953.45" height="325.89" transform="matrix(1,0,0,1,0,0)" fill="none"/><path d=" M 26.567 25.94 C 15.949 36.662 7.098 48.817 0 62.389 L 0 207.85 C 7.206 221.598 16.121 233.8 26.768 244.449 C 36.505 254.181 47.504 262.363 59.755 269.003 L 212.62 269.003 C 212.859 268.871 213.105 268.747 213.342 268.614 C 223.851 262.731 233.23 255.73 241.5 247.598 C 249.758 239.477 257.391 230.657 264.396 221.118 L 203.051 177.426 C 198.561 182.753 194.013 187.583 189.394 191.918 C 184.769 196.264 179.866 200.044 174.688 203.265 C 169.498 206.49 163.763 208.937 157.455 210.619 C 151.155 212.299 144.221 213.14 136.655 213.14 C 126.288 213.14 116.838 211.111 108.294 207.045 C 99.747 202.989 92.389 197.456 86.232 190.45 C 80.07 183.451 75.232 175.119 71.735 165.448 C 68.226 155.785 66.482 145.489 66.482 134.56 L 66.482 133.725 C 66.482 123.075 68.226 112.996 71.735 103.469 C 75.232 93.943 80.07 85.682 86.232 78.677 C 92.389 71.675 99.747 66.138 108.294 62.077 C 116.838 58.016 126.288 55.982 136.655 55.982 C 150.945 55.982 163.127 59.07 173.213 65.228 C 183.296 71.395 192.543 79.799 200.945 90.443 L 262.297 42.96 C 255.847 33.997 248.492 25.732 240.235 18.164 C 232.648 11.221 224.224 5.174 214.983 0.003 L 61.489 0.003 C 48.417 6.985 36.772 15.629 26.567 25.94 Z " fill="rgb(255,255,255)"/><rect x="-30.393" y="-28.108" width="953.45" height="325.89" transform="matrix(1,0,0,1,0,0)" fill="none"/><rect x="280.908" y="0" width="613.162" height="269.51" transform="matrix(1,0,0,1,0,0)" fill="rgb(195,199,47)"/><rect x="-30.393" y="-28.108" width="953.45" height="325.89" transform="matrix(1,0,0,1,0,0)" fill="none"/><path d=" M 26.567 25.94 C 36.772 15.629 48.417 6.985 61.489 0.003 L -0.001 0.003 L -0.001 62.391 C 7.097 48.818 15.948 36.663 26.567 25.94 Z " fill="rgb(0,62,94)"/><rect x="-30.393" y="-28.108" width="953.45" height="325.89" transform="matrix(1,0,0,1,0,0)" fill="none"/><path d=" M 26.769 244.449 C 16.121 233.801 7.206 221.596 -0.001 207.848 L -0.001 269.003 L 59.757 269.003 C 47.506 262.364 36.505 254.182 26.769 244.449 Z " fill="rgb(0,62,94)"/><rect x="-30.393" y="-28.108" width="953.45" height="325.89" transform="matrix(1,0,0,1,0,0)" fill="none"/><path d=" M 214.983 0.003 C 224.224 5.174 232.649 11.221 240.236 18.164 C 248.492 25.732 255.848 33.997 262.298 42.96 L 200.945 90.443 C 192.543 79.799 183.296 71.395 173.213 65.228 C 163.128 59.07 150.945 55.982 136.655 55.982 C 126.289 55.982 116.838 58.016 108.294 62.077 C 99.748 66.138 92.39 71.675 86.232 78.677 C 80.07 85.682 75.233 93.943 71.736 103.469 C 68.227 112.996 66.482 123.075 66.482 133.725 L 66.482 134.56 C 66.482 145.489 68.227 155.785 71.736 165.448 C 75.233 175.119 80.07 183.451 86.232 190.45 C 92.39 197.456 99.748 202.989 108.294 207.045 C 116.838 211.11 126.289 213.14 136.655 213.14 C 144.221 213.14 151.156 212.299 157.455 210.619 C 163.763 208.935 169.498 206.489 174.688 203.265 C 179.867 200.044 184.769 196.264 189.394 191.918 C 194.013 187.583 198.561 182.754 203.051 177.426 L 264.397 221.118 C 257.391 230.657 249.759 239.477 241.5 247.598 C 233.23 255.73 223.851 262.731 213.343 268.614 C 213.105 268.748 212.858 268.872 212.618 269.003 L 268.993 269.003 L 268.993 0.003 L 214.983 0.003 L 214.983 0.003 Z " fill="rgb(0,62,94)"/><rect x="-30.393" y="-28.108" width="953.45" height="325.89" transform="matrix(1,0,0,1,0,0)" fill="none"/><path d=" M 397.219 196.195 L 394.608 185.581 L 392.067 196.195 L 397.219 196.195 L 397.219 196.195 Z  M 398.001 180.006 L 405.415 206.027 L 399.602 206.027 L 398.271 200.686 L 390.978 200.686 L 389.688 206.027 L 384.419 206.027 L 392.224 180.006 L 398.001 180.006 L 398.001 180.006 Z " fill="rgb(255,255,255)"/><rect x="-30.393" y="-28.108" width="953.45" height="325.89" transform="matrix(1,0,0,1,0,0)" fill="none"/><path d=" M 425.778 180.006 L 425.778 201.147 L 434.17 201.147 L 434.17 206.026 L 420.079 206.026 L 420.079 180.006 L 425.778 180.006 Z " fill="rgb(255,255,255)"/><rect x="-30.393" y="-28.108" width="953.45" height="325.89" transform="matrix(1,0,0,1,0,0)" fill="none"/><path d=" M 464.984 180.006 L 464.984 184.489 L 454.88 184.489 L 454.88 190.502 L 462.726 190.502 L 462.726 194.985 L 454.88 194.985 L 454.88 201.384 L 464.984 201.384 L 464.984 206.026 L 449.187 206.026 L 449.187 180.006 L 464.984 180.006 Z " fill="rgb(255,255,255)"/><rect x="-30.393" y="-28.108" width="953.45" height="325.89" transform="matrix(1,0,0,1,0,0)" fill="none"/><path d=" M 594.744 180.006 L 594.744 201.147 L 603.133 201.147 L 603.133 206.026 L 589.044 206.026 L 589.044 180.006 L 594.744 180.006 Z " fill="rgb(255,255,255)"/><rect x="-30.393" y="-28.108" width="953.45" height="325.89" transform="matrix(1,0,0,1,0,0)" fill="none"/><path d=" M 633.951 180.006 L 633.951 184.489 L 623.847 184.489 L 623.847 190.502 L 631.688 190.502 L 631.688 194.985 L 623.847 194.985 L 623.847 201.384 L 633.951 201.384 L 633.951 206.026 L 618.153 206.026 L 618.153 180.006 L 633.951 180.006 Z " fill="rgb(255,255,255)"/><rect x="-30.393" y="-28.108" width="953.45" height="325.89" transform="matrix(1,0,0,1,0,0)" fill="none"/><path d=" M 662.507 180.006 L 662.507 184.886 L 657.197 184.886 L 657.197 206.026 L 651.504 206.026 L 651.504 184.886 L 646.315 184.886 L 646.315 180.006 L 662.507 180.006 Z " fill="rgb(255,255,255)"/><rect x="-30.393" y="-28.108" width="953.45" height="325.89" transform="matrix(1,0,0,1,0,0)" fill="none"/><path d=" M 690.286 180.006 L 690.286 184.886 L 684.982 184.886 L 684.982 206.026 L 679.283 206.026 L 679.283 184.886 L 674.096 184.886 L 674.096 180.006 L 690.286 180.006 Z " fill="rgb(255,255,255)"/><rect x="-30.393" y="-28.108" width="953.45" height="325.89" transform="matrix(1,0,0,1,0,0)" fill="none"/><rect x="704.802" y="180.007" width="5.693" height="26.022" transform="matrix(1,0,0,1,0,0)" fill="rgb(255,255,255)"/><rect x="-30.393" y="-28.108" width="953.45" height="325.89" transform="matrix(1,0,0,1,0,0)" fill="none"/><path d=" M 734.021 180.006 L 740.69 196.157 L 740.69 180.006 L 745.138 180.006 L 745.138 206.026 L 740.025 206.026 L 732.105 187.18 L 732.105 206.026 L 727.653 206.026 L 727.653 180.006 L 734.021 180.006 Z " fill="rgb(255,255,255)"/><rect x="-30.393" y="-28.108" width="953.45" height="325.89" transform="matrix(1,0,0,1,0,0)" fill="none"/><path d=" M 808.535 187.496 C 808.22 186.561 807.483 184.249 804.865 184.249 C 802.952 184.249 802.137 185.58 802.137 186.634 C 802.137 188.435 803.846 189.054 806.623 190.112 C 809.553 191.239 813.803 192.841 813.803 198.105 C 813.803 202.555 810.68 206.419 804.552 206.419 C 802.68 206.419 799.875 206.067 797.765 203.688 C 796.327 202.01 795.853 200.407 795.542 199.28 L 800.536 197.877 C 800.846 199.047 801.59 201.775 804.71 201.775 C 806.664 201.775 808.025 200.684 808.025 198.963 C 808.025 197.133 806.392 196.392 804.44 195.688 C 800.886 194.397 796.588 192.883 796.588 187.569 C 796.588 183.516 799.214 179.613 804.908 179.613 C 811.377 179.613 812.748 183.944 813.292 185.664 L 808.535 187.496 L 808.535 187.496 Z " fill="rgb(255,255,255)"/><rect x="-30.393" y="-28.108" width="953.45" height="325.89" transform="matrix(1,0,0,1,0,0)" fill="none"/><path d=" M 780.483 192.139 L 780.483 206.031 L 778.073 206.031 L 777.325 203.059 C 776.742 203.962 775.099 206.418 771.005 206.418 C 764.523 206.418 761.364 200.644 761.364 193.464 C 761.364 189.605 762.218 179.613 771.507 179.613 C 778.73 179.613 779.975 184.758 780.484 188.51 L 775.338 189.366 C 775.06 187.41 774.669 184.254 771.63 184.254 C 768.392 184.254 767.38 187.765 767.38 193.113 C 767.38 197.793 768.076 201.774 771.825 201.774 C 775.138 201.774 775.255 198.302 775.338 196.628 L 771.435 196.628 L 771.435 192.138 L 780.483 192.138 L 780.483 192.139 Z " fill="rgb(255,255,255)"/><rect x="-30.393" y="-28.108" width="953.45" height="325.89" transform="matrix(1,0,0,1,0,0)" fill="none"/><path d=" M 541.065 189.097 C 542.424 188.314 543.405 187.144 543.405 185.501 C 543.405 184.838 543.168 183.322 541.371 183.322 C 539.931 183.322 539.343 184.296 539.343 185.348 C 539.343 186.713 540.553 188.394 541.065 189.097 Z  M 538.835 194.243 C 537.236 195.217 536.186 196.551 536.186 198.377 C 536.186 200.06 537.081 202.127 539.931 202.127 C 541.88 202.127 542.896 201.194 543.553 200.602 L 538.835 194.243 L 538.835 194.243 Z  M 553.113 191.901 C 552.221 195.761 551.008 198.106 549.608 200.255 C 551.087 201.775 551.755 201.696 553.113 201.623 L 553.113 206.027 C 552.568 206.139 551.983 206.3 551.164 206.3 C 548.628 206.3 547.264 205.014 546.094 203.847 C 544.613 205.014 542.74 206.419 539.074 206.419 C 531.071 206.419 530.76 199.82 530.76 198.735 C 530.76 195.057 533.057 192.76 536.65 191.242 C 536.063 190.381 534.233 187.883 534.233 185.383 C 534.233 182.578 536.727 179.607 541.098 179.607 C 545.664 179.607 547.768 182.778 547.768 185.82 C 547.768 189.563 544.689 191.318 543.285 192.058 L 546.875 196.861 C 548.044 194.872 548.587 192.568 548.904 191.127 L 553.113 191.901 L 553.113 191.901 Z " fill="rgb(255,255,255)"/><rect x="-30.393" y="-28.108" width="953.45" height="325.89" transform="matrix(1,0,0,1,0,0)" fill="none"/><path d=" M 491.437 187.496 C 491.123 186.561 490.386 184.249 487.77 184.249 C 485.854 184.249 485.035 185.58 485.035 186.634 C 485.035 188.435 486.762 189.054 489.527 190.112 C 492.456 191.239 496.706 192.841 496.706 198.105 C 496.706 202.555 493.578 206.419 487.459 206.419 C 485.584 206.419 482.778 206.067 480.668 203.688 C 479.225 202.01 478.755 200.407 478.445 199.28 L 483.429 197.877 C 483.749 199.047 484.492 201.775 487.617 201.775 C 489.566 201.775 490.928 200.684 490.928 198.963 C 490.928 197.133 489.295 196.392 487.342 195.688 C 483.789 194.397 479.502 192.883 479.502 187.569 C 479.502 183.516 482.112 179.613 487.803 179.613 C 494.283 179.613 495.652 183.944 496.197 185.664 L 491.437 187.496 L 491.437 187.496 Z " fill="rgb(255,255,255)"/><rect x="-30.393" y="-28.108" width="953.45" height="325.89" transform="matrix(1,0,0,1,0,0)" fill="none"/><path d=" M 366.4 188.565 C 366.088 187.63 365.346 185.319 362.737 185.319 C 360.824 185.319 360 186.649 360 187.703 C 360 189.504 361.719 190.123 364.486 191.181 C 367.416 192.309 371.663 193.91 371.663 199.174 C 371.663 203.624 368.545 207.488 362.422 207.488 C 360.544 207.488 357.736 207.136 355.633 204.758 C 354.189 203.08 353.72 201.477 353.408 200.35 L 358.399 198.946 C 358.709 200.116 359.453 202.845 362.573 202.845 C 364.527 202.845 365.891 201.753 365.891 200.033 C 365.891 198.203 364.257 197.462 362.303 196.758 C 358.754 195.467 354.454 193.953 354.454 188.639 C 354.454 184.586 357.078 180.684 362.773 180.684 C 369.246 180.684 370.614 185.014 371.159 186.734 L 366.4 188.565 L 366.4 188.565 Z " fill="rgb(255,255,255)"/><rect x="-30.393" y="-28.108" width="953.45" height="325.89" transform="matrix(1,0,0,1,0,0)" fill="none"/><rect x="619.111" y="62.96" width="12.01" height="54.608" transform="matrix(1,0,0,1,0,0)" fill="rgb(0,62,94)"/><rect x="-30.393" y="-28.108" width="953.45" height="325.89" transform="matrix(1,0,0,1,0,0)" fill="none"/><rect x="352.802" y="146.521" width="461.599" height="2.382" transform="matrix(1,0,0,1,0,0)" fill="rgb(0,62,94)"/><rect x="-30.393" y="-28.108" width="953.45" height="325.89" transform="matrix(1,0,0,1,0,0)" fill="none"/><path d=" M 772.816 62.955 L 814.011 62.955 L 814.011 73.648 L 784.757 73.648 L 784.757 84.722 L 810.506 84.722 L 810.506 95.405 L 784.757 95.405 L 784.757 106.877 L 814.404 106.877 L 814.404 117.563 L 772.816 117.563 L 772.816 62.955 Z " fill="rgb(0,62,94)"/><rect x="-30.393" y="-28.108" width="953.45" height="325.89" transform="matrix(1,0,0,1,0,0)" fill="none"/><path d=" M 716.719 62.955 L 728.738 62.955 L 728.738 106.647 L 755.965 106.647 L 755.965 117.563 L 716.719 117.563 L 716.719 62.955 Z " fill="rgb(0,62,94)"/><rect x="-30.393" y="-28.108" width="953.45" height="325.89" transform="matrix(1,0,0,1,0,0)" fill="none"/><path d=" M 678.562 107.036 C 683.874 107.036 687.065 105.163 687.065 101.104 L 687.065 100.946 C 687.065 97.281 684.336 95.022 678.177 95.022 L 664.285 95.022 L 664.285 107.036 L 678.562 107.036 L 678.562 107.036 Z  M 675.371 85.032 C 680.665 85.032 684.019 83.318 684.019 79.262 L 684.019 79.103 C 684.019 75.514 681.219 73.489 676.149 73.489 L 664.285 73.489 L 664.285 85.032 L 675.371 85.032 L 675.371 85.032 Z  M 652.581 62.955 L 677.936 62.955 C 684.178 62.955 689.094 64.669 692.219 67.792 C 694.713 70.288 695.96 73.33 695.96 77.076 L 695.96 77.23 C 695.96 83.396 692.684 86.829 688.783 89.015 C 695.107 91.432 698.998 95.095 698.998 102.428 L 698.998 102.587 C 698.998 112.569 690.889 117.563 678.56 117.563 L 652.58 117.563 L 652.58 62.955 L 652.581 62.955 Z " fill="rgb(0,62,94)"/><rect x="-30.393" y="-28.108" width="953.45" height="325.89" transform="matrix(1,0,0,1,0,0)" fill="none"/><path d=" M 352.806 90.418 L 352.806 90.26 C 352.806 74.739 364.508 62.022 381.281 62.022 C 391.581 62.022 397.742 65.458 402.811 70.447 L 395.168 79.262 C 390.955 75.44 386.665 73.096 381.201 73.096 C 371.997 73.096 365.365 80.747 365.365 90.109 L 365.365 90.26 C 365.365 99.625 371.843 107.424 381.201 107.424 C 387.447 107.424 391.268 104.924 395.558 101.029 L 403.202 108.752 C 397.588 114.762 391.346 118.503 380.809 118.503 C 364.744 118.502 352.806 106.098 352.806 90.418 Z " fill="rgb(0,62,94)"/><rect x="-30.393" y="-28.108" width="953.45" height="325.89" transform="matrix(1,0,0,1,0,0)" fill="none"/><path d=" M 444.791 89.483 C 450.649 89.483 454 86.365 454 81.755 L 454 81.603 C 454 76.454 450.415 73.804 444.552 73.804 L 432.623 73.804 L 432.623 89.483 L 444.791 89.483 L 444.791 89.483 Z  M 420.609 62.955 L 445.575 62.955 C 452.515 62.955 457.899 64.904 461.484 68.493 C 464.529 71.538 466.168 75.826 466.168 80.981 L 466.168 81.13 C 466.168 89.948 461.418 95.491 454.463 98.062 L 467.812 117.563 L 453.76 117.563 L 442.061 100.089 L 441.907 100.089 L 432.623 100.089 L 432.623 117.563 L 420.609 117.563 L 420.609 62.955 L 420.609 62.955 Z " fill="rgb(0,62,94)"/><rect x="-30.393" y="-28.108" width="953.45" height="325.89" transform="matrix(1,0,0,1,0,0)" fill="none"/><path d=" M 485.528 94.161 L 485.528 62.956 L 497.543 62.956 L 497.543 93.851 C 497.543 102.747 501.987 107.348 509.32 107.348 C 516.658 107.348 521.096 102.898 521.096 94.242 L 521.096 62.956 L 533.116 62.956 L 533.116 93.778 C 533.116 110.309 523.832 118.424 509.169 118.424 C 494.493 118.424 485.528 110.231 485.528 94.161 Z " fill="rgb(0,62,94)"/><rect x="-30.393" y="-28.108" width="953.45" height="325.89" transform="matrix(1,0,0,1,0,0)" fill="none"/><path d=" M 550.758 90.418 L 550.758 90.26 C 550.758 74.739 562.456 62.022 579.237 62.022 C 589.534 62.022 595.698 65.458 600.763 70.447 L 593.124 79.262 C 588.908 75.44 584.615 73.096 579.151 73.096 C 569.952 73.096 563.318 80.747 563.318 90.109 L 563.318 90.26 C 563.318 99.625 569.794 107.424 579.151 107.424 C 585.4 107.424 589.219 104.924 593.512 101.029 L 601.153 108.752 C 595.539 114.762 589.295 118.503 578.763 118.503 C 562.695 118.502 550.758 106.098 550.758 90.418 Z " fill="rgb(0,62,94)"/></svg>