<?xml version="1.0" standalone="no"?><!-- Generator: Gravit.io --><svg xmlns="http://www.w3.org/2000/svg" xmlns:xlink="http://www.w3.org/1999/xlink" style="isolation:isolate" viewBox="0 0 400 400" width="400" height="400"><defs><clipPath id="_clipPath_dGjAWqi7wj6O97urqcBzfQRRZtF884ee"><rect width="400" height="400"/></clipPath></defs><g clip-path="url(#_clipPath_dGjAWqi7wj6O97urqcBzfQRRZtF884ee)"><circle vector-effect="non-scaling-stroke" cx="200.00000000000003" cy="199.9660597165529" r="200.00000000000003" fill="rgb(255,255,255)"/><path d=" M 395.373 199.965 C 395.373 307.87 307.905 395.336 200.001 395.336 C 92.097 395.336 4.63 307.87 4.63 199.965 C 4.63 92.062 92.097 4.596 200.001 4.596 C 307.905 4.596 395.373 92.062 395.373 199.965 Z " fill="rgb(255,255,255)"/><path d=" M 200.001 399.998 C 89.721 399.998 0 310.281 0 199.998 C 0 89.717 89.721 0 200.001 0 C 310.282 0 400 89.717 400 199.998 C 400 310.281 310.282 399.998 200.001 399.998 M 200.001 9.256 C 94.823 9.256 9.255 94.823 9.255 199.998 C 9.255 305.177 94.823 390.744 200.001 390.744 C 305.175 390.744 390.742 305.177 390.742 199.998 C 390.742 94.823 305.175 9.256 200.001 9.256" fill="rgb(16,100,106)"/><path d=" M 142.97 156.275 L 142.97 224.175 L 88.078 224.175 L 88.078 156.275 L 72.505 156.275 L 67.518 144.711 L 137.982 69.498 L 142.977 64.17 L 147.964 69.498 L 218.417 144.711 L 213.43 156.275 L 197.532 156.275 L 142.97 156.275 Z  M 187.655 77.099 L 170.387 77.099 L 170.387 86.627 L 187.655 105.062 L 187.655 77.099 Z " fill="rgb(16,100,106)"/><path d=" M 185.894 224.175 L 185.894 200.252 L 166.34 200.252 L 166.34 224.175 L 151.066 224.175 L 151.066 164.373 L 166.34 164.373 L 166.34 186.841 L 185.894 186.841 L 185.894 164.373 L 201.175 164.373 L 201.175 224.175 L 185.894 224.175 Z " fill="rgb(16,100,106)"/><path d=" M 254.261 205.829 L 220.644 205.829 C 221.456 211.161 225.896 214.318 231.154 214.318 C 234.788 214.318 237.132 212.863 239.312 210.111 L 253.055 210.111 C 249.174 219.081 241.254 225.63 231.154 225.63 C 218.063 225.63 207.396 214.964 207.396 201.872 C 207.396 188.858 217.736 177.788 230.91 177.788 C 244.648 177.788 254.589 188.779 254.589 202.277 C 254.589 203.485 254.511 204.618 254.261 205.829 M 230.993 189.103 C 226.142 189.103 221.862 191.931 220.808 196.78 L 241.174 196.78 C 240.118 191.931 235.833 189.103 230.993 189.103 Z " fill="rgb(46,155,152)"/><path d=" M 260.41 164.373 L 273.824 164.373 L 273.824 224.175 L 260.41 224.175 L 260.41 164.373 Z " fill="rgb(46,155,152)"/><path d=" M 308.055 225.711 C 302.719 225.711 298.197 224.093 294.559 220.133 L 294.559 239.124 L 281.146 239.124 L 281.146 179.326 L 293.746 179.326 L 293.746 184.254 L 293.834 184.254 L 293.986 184.254 C 297.464 179.889 302.478 177.788 307.977 177.788 C 321.872 177.788 329.874 189.178 329.874 202.191 C 329.874 214.721 321.147 225.711 308.055 225.711 M 305.224 190.314 C 298.766 190.314 293.986 195.407 293.986 201.789 C 293.986 208.097 298.845 213.184 305.224 213.184 C 311.61 213.184 316.462 208.097 316.462 201.789 C 316.462 195.407 311.692 190.314 305.224 190.314 Z " fill="rgb(46,155,152)"/><path d=" M 108.121 261.975 L 108.121 296.639 L 94.705 296.639 L 94.705 261.975 L 88.078 261.975 L 88.078 251.792 L 94.705 251.792 L 94.705 236.84 L 108.121 236.84 L 108.121 251.792 L 114.586 251.792 L 114.586 261.975 L 108.121 261.975 Z " fill="rgb(46,155,152)"/><path d=" M 139.91 298.018 C 126.175 298.018 115.747 287.914 115.747 274.175 C 115.747 260.437 126.175 250.335 139.91 250.335 C 153.646 250.335 164.072 260.437 164.072 274.175 C 164.072 287.914 153.646 298.018 139.91 298.018 Z  M 139.91 262.863 C 133.685 262.863 129.162 268.116 129.162 274.175 C 129.162 280.237 133.685 285.489 139.91 285.489 C 146.131 285.489 150.657 280.237 150.657 274.175 C 150.657 268.116 146.131 262.863 139.91 262.863 Z " fill="rgb(46,155,152)"/><path d=" M 224.448 291.47 C 218.304 296.723 212.648 296.645 204.892 296.645 L 185.9 296.645 L 185.9 236.84 L 204.323 236.84 C 211.518 236.84 218.304 236.923 223.479 242.658 C 225.984 245.409 227.036 248.8 227.036 252.52 C 227.036 257.606 224.527 262.054 220.08 264.561 C 226.635 266.82 229.946 271.673 229.946 278.457 C 229.946 283.227 228.165 288.32 224.448 291.47 M 206.42 249.311 L 199.315 249.311 L 199.315 260.496 L 206.32 260.496 C 210.307 260.496 213.612 259.329 213.612 254.751 C 213.612 250.18 210.207 249.311 206.42 249.311 M 208.129 271.511 L 199.315 271.511 L 199.315 284.037 L 208.042 284.037 C 212.4 284.037 216.293 282.55 216.293 277.447 C 216.293 272.531 212.215 271.511 208.129 271.511 Z " fill="rgb(46,155,152)"/><path d=" M 263.604 296.639 L 263.604 291.874 L 263.44 291.874 C 261.1 296.723 256.816 298.1 251.807 298.1 C 246.871 298.1 241.868 296.402 238.628 292.44 C 234.994 287.914 234.593 284.197 234.593 278.625 L 234.593 251.792 L 248.005 251.792 L 248.005 276.6 C 248.005 281.692 249.14 285.571 255.201 285.571 C 260.771 285.571 262.871 281.613 262.871 276.443 L 262.871 251.792 L 276.287 251.792 L 276.287 296.639 L 263.604 296.639" fill="rgb(46,155,152)"/><path d=" M 303.634 311.593 L 289.407 311.593 L 296.521 294.382 L 279.871 251.792 L 294.174 251.792 L 303.15 277.815 L 303.309 277.815 L 311.875 251.792 L 326.095 251.792 L 303.634 311.593 Z " fill="rgb(46,155,152)"/><path d=" M 199.999 367.547 C 107.46 367.547 32.41 292.513 32.41 199.946 C 32.41 107.375 107.46 32.375 199.999 32.375 C 292.551 32.375 367.578 107.375 367.578 199.946 C 367.578 292.513 292.551 367.547 199.999 367.547 Z  M 200.001 23.178 C 102.5 23.178 23.181 102.501 23.181 199.998 C 23.181 297.502 102.5 376.82 200.001 376.82 C 297.499 376.82 376.827 297.502 376.827 199.998 C 376.827 102.501 297.499 23.178 200.001 23.178" fill="rgb(46,155,152)"/></g></svg>