<?xml version="1.0" standalone="no"?><!-- Generator: Gravit.io --><svg xmlns="http://www.w3.org/2000/svg" xmlns:xlink="http://www.w3.org/1999/xlink" style="isolation:isolate" viewBox="0 0 640 168" width="640" height="168"><defs><clipPath id="_clipPath_tOET4GUPVgBdd33cEwTsC8xGTc6viek7"><rect width="640" height="168"/></clipPath></defs><g clip-path="url(#_clipPath_tOET4GUPVgBdd33cEwTsC8xGTc6viek7)"><path d=" M 300.147 79.291 L 307.636 79.291 C 312.13 79.291 316.35 76.227 316.35 72.142 C 316.35 67.307 312.13 64.924 307.568 64.924 L 300.147 64.924 L 300.147 79.291 Z  M 300.147 108.84 L 290.682 108.84 L 290.682 56.415 L 307.568 56.415 C 317.303 56.415 325.814 61.589 325.814 72.142 C 325.814 79.291 321.117 84.33 315.057 86.507 L 329.56 108.84 L 318.937 108.84 L 305.661 87.802 L 300.147 87.802 L 300.147 108.84 Z  M 276.049 86.917 L 256.44 86.917 L 256.44 100.329 L 279.453 100.329 L 279.453 108.84 L 246.976 108.84 L 246.976 56.415 L 278.773 56.415 L 278.773 64.924 L 256.44 64.924 L 256.44 78.407 L 276.049 78.407 L 276.049 86.917 Z  M 234.728 108.84 L 225.263 108.84 L 225.263 86.917 L 206.064 86.917 L 206.064 108.84 L 196.599 108.84 L 196.599 56.415 L 206.064 56.415 L 206.064 78.407 L 225.263 78.407 L 225.263 56.415 L 234.728 56.415 L 234.728 108.84 Z  M 187.074 64.924 L 169.781 64.924 L 169.781 108.84 L 160.316 108.84 L 160.316 64.924 L 143.159 64.924 L 143.159 56.415 L 187.074 56.415 L 187.074 64.924 Z  M 95.504 82.559 C 95.504 92.227 102.994 101.011 112.867 101.011 C 122.603 101.011 130.093 92.227 130.093 82.559 C 130.093 72.958 122.603 64.244 112.867 64.244 C 102.994 64.244 95.504 72.958 95.504 82.559 Z  M 85.904 82.559 C 85.904 67.853 98.024 55.734 112.867 55.734 C 127.709 55.734 139.693 67.989 139.693 82.559 C 139.693 97.471 127.506 109.521 112.867 109.521 C 98.092 109.521 85.904 97.471 85.904 82.559 Z  M 50.709 79.291 L 58.198 79.291 C 62.692 79.291 66.913 76.227 66.913 72.142 C 66.913 67.307 62.692 64.924 58.131 64.924 L 50.709 64.924 L 50.709 79.291 Z  M 50.709 108.84 L 41.245 108.84 L 41.245 56.415 L 58.131 56.415 C 67.867 56.415 76.377 61.589 76.377 72.142 C 76.377 79.291 71.68 84.33 65.62 86.507 L 80.122 108.84 L 69.5 108.84 L 56.224 87.802 L 50.709 87.802 L 50.709 108.84 Z " fill="rgb(0,0,0)"/><path d=" M 552.389 84.011 C 552.389 68.623 563.758 57.048 579.419 57.048 C 585.002 57.048 591.129 58.478 597.461 62.768 L 592.968 69.78 C 588.134 66.581 583.095 65.559 579.419 65.559 C 569.138 65.559 561.989 73.73 561.989 84.011 C 561.989 94.018 569.342 102.326 579.419 102.326 C 582.55 102.326 586.636 101.372 589.768 99.603 L 589.768 91.637 L 580.168 91.637 L 580.168 83.126 L 598.755 83.126 L 598.755 103.891 C 593.24 107.84 586.568 110.836 579.419 110.836 C 563.486 110.836 552.389 98.786 552.389 84.011 Z  M 506.029 78.427 L 506.029 110.155 L 496.565 110.155 L 496.565 56.163 L 531.696 90.003 L 531.696 57.73 L 541.161 57.73 L 541.161 112.266 L 506.029 78.427 Z  M 484.313 57.73 L 484.313 110.155 L 474.849 110.155 L 474.849 57.73 L 484.313 57.73 Z  M 415.62 57.73 L 425.834 57.73 L 441.084 92.044 L 456.336 57.73 L 466.684 57.73 L 441.084 112.266 L 415.62 57.73 Z  M 407.453 57.73 L 407.453 110.155 L 397.989 110.155 L 397.989 57.73 L 407.453 57.73 Z  M 357.348 110.155 L 357.348 57.73 L 366.812 57.73 L 366.812 101.644 L 389.825 101.644 L 389.825 110.155 L 357.348 110.155 Z " fill="rgb(0,0,0)"/><path d=" M 0 0 L 640 0 L 640 168 L 0 168 L 0 0 Z  M 10 10.003 L 630 10.003 L 630 158.003 L 10 158.003 L 10 10.003 Z " fill-rule="evenodd" fill="rgb(0,0,0)"/></g></svg>